<?xml version="1.0" encoding="utf-8"?>
<svg fill="none" stroke-linecap="square" stroke-miterlimit="10" viewBox="0 0 585 393" preserveAspectRatio="xMinYMin" xmlns="http://www.w3.org/2000/svg">
  <clipPath id="a">
    <path d="M0 0h960v720H0V0z"/>
  </clipPath>
  <g clip-path="url(#a)" transform="matrix(1, 0, 0, 1, -188.800873, -166.380768)">
    <path fill="none" d="m384.4452 253.515-71.874 56.189"/>
    <path stroke="#1f497d" stroke-linecap="butt" stroke-linejoin="round" stroke-width="4" d="m384.4452 253.515-71.874 56.189"/>
    <path fill="none" d="m553.5495 253.515 93.8898 56.189"/>
    <path stroke="#1f497d" stroke-linecap="butt" stroke-linejoin="round" stroke-width="4" d="m553.5495 253.515 93.8898 56.189"/>
    <path fill="none" d="m312.5617 403.92 71.874 62.5511"/>
    <path stroke="#1f497d" stroke-linecap="butt" stroke-linejoin="round" stroke-width="4" d="m312.5617 403.92 71.874 62.5511"/>
    <path fill="none" d="m647.4383 403.92-93.8897 62.5511"/>
    <path stroke="#1f497d" stroke-linecap="butt" stroke-linejoin="round" stroke-width="4" d="m647.4383 403.92-93.8897 62.5511"/>
    <g filter="url(#b)">
      <g transform="matrix(1, 0, 0, 1, 0, 2.4147000312805176)">
        <path fill="url(#d)" fill-rule="evenodd" d="M349.4226 220.2087c0-26.014 53.5354-47.1024 119.5748-47.1024 66.0393 0 119.5748 21.0884 119.5748 47.1024 0 26.0139-53.5355 47.1023-119.5748 47.1023-66.0394 0-119.5748-21.0884-119.5748-47.1023z"/>
        <path fill-rule="evenodd" stroke="#4a7dba" stroke-linecap="butt" stroke-linejoin="round" d="M349.4226 220.2087c0-26.014 53.5354-47.1024 119.5748-47.1024 66.0393 0 119.5748 21.0884 119.5748 47.1024 0 26.0139-53.5355 47.1023-119.5748 47.1023-66.0394 0-119.5748-21.0884-119.5748-47.1023z"/>
        <path fill="#fff" d="M442.099 228.4893q-.047.1406-.125.2187-.0782.0782-.2344.125-.1407.047-.375.0625-.2188.0313-.5625.0313-.25 0-.4532-.0156-.1875 0-.328-.0313-.1407-.0156-.25-.0469-.0938-.0312-.172-.078-.0625-.047-.1093-.1095-.0313-.0625-.0625-.1562l-4.9688-14.0938q-.0937-.25-.0937-.4062 0-.1719.0937-.25.1094-.0781.3438-.0938.2343-.0312.6406-.0312.3281 0 .5156.0156.1875.0156.2969.0625t.1562.125q.0625.0781.1094.1875l4.3438 12.7656h.0156l4.2187-12.7343q.047-.125.0938-.2032.0469-.0937.1562-.1406.125-.0469.3282-.0625.2187-.0156.5625-.0156.3593 0 .5625.0312.2187.0313.2968.1094.0782.0781.0625.2344-.0156.1562-.1093.4219l-4.9532 14.078zm15.078-5.6719q0 .4688-.2343.6563-.2188.1875-.5156.1875h-6.922q0 .8906.172 1.5937.1875.7031.5937 1.2031.4063.5 1.0625.7813.6563.2656 1.6094.2656.75 0 1.3281-.125.5938-.125 1.0156-.2812.4375-.1563.7032-.2657.2812-.125.4218-.125.0782 0 .1407.047.078.0312.1093.1093.0313.0781.047.2344.0155.1406.0155.3593 0 .1407-.0156.2657 0 .1093-.0156.203-.0156.0782-.0625.1563-.0469.0625-.1094.125t-.375.2188q-.3125.1406-.8281.2812-.5.1407-1.1719.25-.6562.1094-1.4062.1094-1.297 0-2.2813-.3594-.9687-.3593-1.6406-1.078-.6719-.7188-1.0156-1.797-.3282-1.078-.3282-2.5 0-1.3593.3438-2.4375.3594-1.0937 1.0156-1.8437.6719-.7656 1.6094-1.1719.9375-.4062 2.0937-.4062 1.2344 0 2.1094.4062.875.3906 1.4375 1.0781.5625.672.8281 1.5782.2657.9062.2657 1.9375v.3437zm-1.953-.5625q.0468-1.5312-.672-2.3906-.703-.875-2.0937-.875-.7187 0-1.2656.2812-.5313.2657-.9063.7188-.3593.4375-.5625 1.0312-.1875.5782-.2187 1.2344h5.7187zm13.9726 6.2969q0 .0937-.0469.1562t-.1562.125q-.0938.047-.2813.0625-.1875.0313-.4687.0313-.2969 0-.4844-.0313-.1875-.0156-.2969-.0625-.1094-.0625-.1562-.125-.0469-.0625-.0469-.1562v-6.1719q0-.9062-.1406-1.4531-.1407-.5469-.4063-.9375-.2656-.4063-.7031-.6094-.4219-.2187-.9844-.2187-.7187 0-1.4531.5156-.7188.5156-1.5156 1.5v7.375q0 .0937-.0469.1562t-.1563.125q-.1093.047-.2968.0625-.1875.0313-.4844.0313-.2813 0-.4688-.0313-.1875-.0156-.2968-.0625-.1094-.0625-.1563-.125-.0312-.0625-.0312-.1562v-15.6563q0-.0937.0312-.1562.0469-.0781.1563-.125.1093-.0469.2968-.0625.1875-.0313.4688-.0313.2969 0 .4844.0313.1875.0156.2968.0625.1094.0469.1563.125.0469.0625.0469.1562v6.3125q.8281-.875 1.6718-1.2968.8438-.4375 1.7032-.4375 1.0468 0 1.7656.3593.7187.3594 1.1562.9688.4532.5937.6407 1.3906.2031.7969.2031 1.9375v6.4219zm5.4687 0q0 .0937-.0468.1562-.0469.0625-.1563.125-.1094.047-.2969.0625-.1875.0313-.4843.0313-.2813 0-.4688-.0313-.1875-.0156-.2969-.0625-.1093-.0625-.1562-.125-.0313-.0625-.0313-.1562v-10.5469q0-.0781.0313-.1406.0469-.0781.1562-.125.1094-.0469.297-.0625.1874-.0313.4687-.0313.2968 0 .4843.0313.1875.0156.297.0625.1093.0469.1562.125.0468.0625.0468.1406v10.5469zm.2188-14.1094q0 .6875-.2656.9375-.25.2344-.9375.2344t-.9375-.2344q-.25-.25-.25-.9062 0-.6875.25-.922.2656-.25.9531-.25t.9375.2345q.25.2343.25.9062zm10.9297 12.5q0 .2031-.0156.3594 0 .1406-.0313.25-.0312.0937-.0781.1719-.0313.0625-.1875.2187-.1406.1406-.5.3594-.3438.2187-.7813.3906t-.953.2656q-.5157.1094-1.0782.1094-1.125 0-2.0156-.375-.875-.375-1.4688-1.0937-.5937-.7188-.9062-1.7657-.297-1.0468-.297-2.4218 0-1.5625.375-2.672.375-1.125 1.0313-1.8437.672-.7187 1.5625-1.0625.9063-.3437 1.9532-.3437.5 0 .9687.0937.4844.0938.875.25.4063.1563.7031.3594.3125.1875.4532.3281.1406.1407.1875.2344.0625.0781.0937.1875.0469.1094.0469.25.0156.1406.0156.3438 0 .4687-.1094.6562-.0937.1719-.25.1719-.1718 0-.4062-.1875-.2344-.2031-.5938-.4375-.3437-.2344-.8437-.4219-.4844-.2031-1.1719-.2031-1.3906 0-2.1406 1.0781-.7344 1.0781-.7344 3.1094 0 1.0156.1875 1.7969.1875.7656.5625 1.2812t.9219.7656q.5469.25 1.25.25.6719 0 1.1719-.203.5-.2188.875-.4688t.625-.4532q.25-.2187.3906-.2187.0781 0 .1406.0469.0625.0468.0938.1718.0468.1094.0625.2813.0156.1562.0156.3906zm4.5078 1.6094q0 .0937-.0469.1562t-.1562.125q-.1094.047-.2969.0625-.1875.0313-.4844.0313-.2812 0-.4687-.0313-.1875-.0156-.2969-.0625-.1094-.0625-.1563-.125-.0312-.0625-.0312-.1562v-15.6563q0-.0937.0312-.1562.047-.0781.1563-.125.1094-.0469.2969-.0625.1875-.0313.4687-.0313.2969 0 .4844.0313.1875.0156.2969.0625.1093.0469.1562.125.0469.0625.0469.1562v15.6563zm12.5703-5.7344q0 .4688-.2344.6563-.2187.1875-.5156.1875H495.22q0 .8906.172 1.5937.1874.7031.5937 1.2031.4062.5 1.0625.7813.6562.2656 1.6093.2656.75 0 1.3282-.125.5937-.125 1.0156-.2812.4375-.1563.7031-.2657.2813-.125.4219-.125.0781 0 .1406.047.0781.0312.1094.1093.0312.0781.0469.2344.0156.1406.0156.3593 0 .1407-.0156.2657 0 .1093-.0157.203-.0156.0782-.0625.1563-.0468.0625-.1093.125-.0625.0625-.375.2188-.3125.1406-.8282.2812-.5.1407-1.1718.25-.6563.1094-1.4063.1094-1.2969 0-2.2812-.3594-.9688-.3593-1.6407-1.078-.6718-.7188-1.0156-1.797-.3281-1.078-.3281-2.5 0-1.3593.3437-2.4375.3594-1.0937 1.0157-1.8437.6718-.7656 1.6093-1.1719.9375-.4062 2.0938-.4062 1.2344 0 2.1094.4062.875.3906 1.4375 1.0781.5625.672.828 1.5782.2657.9062.2657 1.9375v.3437zm-1.9531-.5625q.0469-1.5312-.6719-2.3906-.7031-.875-2.0937-.875-.7188 0-1.2657.2812-.5312.2657-.9062.7188-.3594.4375-.5625 1.0312-.1875.5782-.2188 1.2344h5.7188z"/>
      </g>
    </g>
    <defs>
      <filter id="b" filterUnits="userSpaceOnUse">
        <feGaussianBlur in="SourceAlpha" result="blur" stdDeviation="1.3998"/>
        <feComponentTransfer color-interpolation-filters="sRGB" in="blur">
          <feFuncR slope="0" type="linear"/>
          <feFuncG slope="0" type="linear"/>
          <feFuncB slope="0" type="linear"/>
          <feFuncA slope=".349" type="linear"/>
        </feComponentTransfer>
      </filter>
    </defs>
    <g id="c">
      <defs>
        <linearGradient id="d" x1="60.6397" x2="60.6399" y1="27.5409" y2="17.8349" gradientTransform="scale(9.70605)" gradientUnits="userSpaceOnUse" spreadMethod="pad">
          <stop offset="0" stop-color="#3e7fcd"/>
          <stop offset="1" stop-color="#96c0ff"/>
        </linearGradient>
      </defs>
      <path fill="url(#d)" fill-rule="evenodd" d="M349.4226 220.2087c0-26.014 53.5354-47.1024 119.5748-47.1024 66.0393 0 119.5748 21.0884 119.5748 47.1024 0 26.0139-53.5355 47.1023-119.5748 47.1023-66.0394 0-119.5748-21.0884-119.5748-47.1023z"/>
      <path fill-rule="evenodd" stroke="#4a7dba" stroke-linecap="butt" stroke-linejoin="round" d="M349.4226 220.2087c0-26.014 53.5354-47.1024 119.5748-47.1024 66.0393 0 119.5748 21.0884 119.5748 47.1024 0 26.0139-53.5355 47.1023-119.5748 47.1023-66.0394 0-119.5748-21.0884-119.5748-47.1023z"/>
      <path fill="#fff" d="M442.099 228.4893q-.047.1406-.125.2187-.0782.0782-.2344.125-.1407.047-.375.0625-.2188.0313-.5625.0313-.25 0-.4532-.0156-.1875 0-.328-.0313-.1407-.0156-.25-.0469-.0938-.0312-.172-.078-.0625-.047-.1093-.1095-.0313-.0625-.0625-.1562l-4.9688-14.0938q-.0937-.25-.0937-.4062 0-.1719.0937-.25.1094-.0781.3438-.0938.2343-.0312.6406-.0312.3281 0 .5156.0156.1875.0156.2969.0625t.1562.125q.0625.0781.1094.1875l4.3438 12.7656h.0156l4.2187-12.7343q.047-.125.0938-.2032.0469-.0937.1562-.1406.125-.0469.3282-.0625.2187-.0156.5625-.0156.3593 0 .5625.0312.2187.0313.2968.1094.0782.0781.0625.2344-.0156.1562-.1093.4219l-4.9532 14.078zm15.078-5.6719q0 .4688-.2343.6563-.2188.1875-.5156.1875h-6.922q0 .8906.172 1.5937.1875.7031.5937 1.2031.4063.5 1.0625.7813.6563.2656 1.6094.2656.75 0 1.3281-.125.5938-.125 1.0156-.2812.4375-.1563.7032-.2657.2812-.125.4218-.125.0782 0 .1407.047.078.0312.1093.1093.0313.0781.047.2344.0155.1406.0155.3593 0 .1407-.0156.2657 0 .1093-.0156.203-.0156.0782-.0625.1563-.0469.0625-.1094.125t-.375.2188q-.3125.1406-.8281.2812-.5.1407-1.1719.25-.6562.1094-1.4062.1094-1.297 0-2.2813-.3594-.9687-.3593-1.6406-1.078-.6719-.7188-1.0156-1.797-.3282-1.078-.3282-2.5 0-1.3593.3438-2.4375.3594-1.0937 1.0156-1.8437.6719-.7656 1.6094-1.1719.9375-.4062 2.0937-.4062 1.2344 0 2.1094.4062.875.3906 1.4375 1.0781.5625.672.8281 1.5782.2657.9062.2657 1.9375v.3437zm-1.953-.5625q.0468-1.5312-.672-2.3906-.703-.875-2.0937-.875-.7187 0-1.2656.2812-.5313.2657-.9063.7188-.3593.4375-.5625 1.0312-.1875.5782-.2187 1.2344h5.7187zm13.9726 6.2969q0 .0937-.0469.1562t-.1562.125q-.0938.047-.2813.0625-.1875.0313-.4687.0313-.2969 0-.4844-.0313-.1875-.0156-.2969-.0625-.1094-.0625-.1562-.125-.0469-.0625-.0469-.1562v-6.1719q0-.9062-.1406-1.4531-.1407-.5469-.4063-.9375-.2656-.4063-.7031-.6094-.4219-.2187-.9844-.2187-.7187 0-1.4531.5156-.7188.5156-1.5156 1.5v7.375q0 .0937-.0469.1562t-.1563.125q-.1093.047-.2968.0625-.1875.0313-.4844.0313-.2813 0-.4688-.0313-.1875-.0156-.2968-.0625-.1094-.0625-.1563-.125-.0312-.0625-.0312-.1562v-15.6563q0-.0937.0312-.1562.0469-.0781.1563-.125.1093-.0469.2968-.0625.1875-.0313.4688-.0313.2969 0 .4844.0313.1875.0156.2968.0625.1094.0469.1563.125.0469.0625.0469.1562v6.3125q.8281-.875 1.6718-1.2968.8438-.4375 1.7032-.4375 1.0468 0 1.7656.3593.7187.3594 1.1562.9688.4532.5937.6407 1.3906.2031.7969.2031 1.9375v6.4219zm5.4687 0q0 .0937-.0468.1562-.0469.0625-.1563.125-.1094.047-.2969.0625-.1875.0313-.4843.0313-.2813 0-.4688-.0313-.1875-.0156-.2969-.0625-.1093-.0625-.1562-.125-.0313-.0625-.0313-.1562v-10.5469q0-.0781.0313-.1406.0469-.0781.1562-.125.1094-.0469.297-.0625.1874-.0313.4687-.0313.2968 0 .4843.0313.1875.0156.297.0625.1093.0469.1562.125.0468.0625.0468.1406v10.5469zm.2188-14.1094q0 .6875-.2656.9375-.25.2344-.9375.2344t-.9375-.2344q-.25-.25-.25-.9062 0-.6875.25-.922.2656-.25.9531-.25t.9375.2345q.25.2343.25.9062zm10.9297 12.5q0 .2031-.0156.3594 0 .1406-.0313.25-.0312.0937-.0781.1719-.0313.0625-.1875.2187-.1406.1406-.5.3594-.3438.2187-.7813.3906t-.953.2656q-.5157.1094-1.0782.1094-1.125 0-2.0156-.375-.875-.375-1.4688-1.0937-.5937-.7188-.9062-1.7657-.297-1.0468-.297-2.4218 0-1.5625.375-2.672.375-1.125 1.0313-1.8437.672-.7187 1.5625-1.0625.9063-.3437 1.9532-.3437.5 0 .9687.0937.4844.0938.875.25.4063.1563.7031.3594.3125.1875.4532.3281.1406.1407.1875.2344.0625.0781.0937.1875.0469.1094.0469.25.0156.1406.0156.3438 0 .4687-.1094.6562-.0937.1719-.25.1719-.1718 0-.4062-.1875-.2344-.2031-.5938-.4375-.3437-.2344-.8437-.4219-.4844-.2031-1.1719-.2031-1.3906 0-2.1406 1.0781-.7344 1.0781-.7344 3.1094 0 1.0156.1875 1.7969.1875.7656.5625 1.2812t.9219.7656q.5469.25 1.25.25.6719 0 1.1719-.203.5-.2188.875-.4688t.625-.4532q.25-.2187.3906-.2187.0781 0 .1406.0469.0625.0468.0938.1718.0468.1094.0625.2813.0156.1562.0156.3906zm4.5078 1.6094q0 .0937-.0469.1562t-.1562.125q-.1094.047-.2969.0625-.1875.0313-.4844.0313-.2812 0-.4687-.0313-.1875-.0156-.2969-.0625-.1094-.0625-.1563-.125-.0312-.0625-.0312-.1562v-15.6563q0-.0937.0312-.1562.047-.0781.1563-.125.1094-.0469.2969-.0625.1875-.0313.4687-.0313.2969 0 .4844.0313.1875.0156.2969.0625.1093.0469.1562.125.0469.0625.0469.1562v15.6563zm12.5703-5.7344q0 .4688-.2344.6563-.2187.1875-.5156.1875H495.22q0 .8906.172 1.5937.1874.7031.5937 1.2031.4062.5 1.0625.7813.6562.2656 1.6093.2656.75 0 1.3282-.125.5937-.125 1.0156-.2812.4375-.1563.7031-.2657.2813-.125.4219-.125.0781 0 .1406.047.0781.0312.1094.1093.0312.0781.0469.2344.0156.1406.0156.3593 0 .1407-.0156.2657 0 .1093-.0157.203-.0156.0782-.0625.1563-.0468.0625-.1093.125-.0625.0625-.375.2188-.3125.1406-.8282.2812-.5.1407-1.1718.25-.6563.1094-1.4063.1094-1.2969 0-2.2812-.3594-.9688-.3593-1.6407-1.078-.6718-.7188-1.0156-1.797-.3281-1.078-.3281-2.5 0-1.3593.3437-2.4375.3594-1.0937 1.0157-1.8437.6718-.7656 1.6093-1.1719.9375-.4062 2.0938-.4062 1.2344 0 2.1094.4062.875.3906 1.4375 1.0781.5625.672.828 1.5782.2657.9062.2657 1.9375v.3437zm-1.9531-.5625q.0469-1.5312-.6719-2.3906-.7031-.875-2.0937-.875-.7188 0-1.2657.2812-.5312.2657-.9062.7188-.3594.4375-.5625 1.0312-.1875.5782-.2188 1.2344h5.7188z"/>
    </g>
    <g filter="url(#e)">
      <g transform="matrix(1, 0, 0, 1, 0, 2.4147000312805176)">
        <path fill="url(#g)" fill-rule="evenodd" d="M192.9869 356.8176c0-26.014 53.5354-47.1024 119.5748-47.1024 66.0393 0 119.5748 21.0885 119.5748 47.1024 0 26.014-53.5355 47.1024-119.5748 47.1024-66.0394 0-119.5748-21.0885-119.5748-47.1024z"/>
        <path fill-rule="evenodd" stroke="#4a7dba" stroke-linecap="butt" stroke-linejoin="round" d="M192.9869 356.8176c0-26.014 53.5354-47.1024 119.5748-47.1024 66.0393 0 119.5748 21.0885 119.5748 47.1024 0 26.014-53.5355 47.1024-119.5748 47.1024-66.0394 0-119.5748-21.0885-119.5748-47.1024z"/>
        <path fill="#fff" d="M302.0656 361.1138q0 .7032-.1875 1.3125-.1719.6094-.5 1.0938-.3281.4687-.7969.8437-.4687.3594-1.0469.6094-.578.2344-1.25.3594-.6562.125-1.5.125h-3.9687q-.2656 0-.5156-.1719-.2344-.1875-.2344-.6562v-13.5157q0-.4531.2344-.6406.25-.1875.5156-.1875h3.4531q1.3594 0 2.2188.2656.875.25 1.453.75.5782.4844.8595 1.2032.2968.7187.2968 1.625 0 .5312-.125 1.0312-.125.4844-.375.9063-.25.4062-.6406.7343-.375.3282-.875.5469.625.1094 1.1563.4219.5468.3125.953.7969.4063.4843.6407 1.125.2344.6406.2344 1.4218zm-3.0313-6.7968q0-.547-.1562-.9844-.1563-.4531-.4844-.7656-.3281-.3125-.8594-.4688-.5156-.1719-1.3906-.1719h-2.0781v4.9219h2.2969q.7812 0 1.25-.2031.4843-.2188.7968-.5625.3282-.3438.4688-.7969.1562-.4687.1562-.9687zm.9063 6.9062q0-.6719-.2188-1.1875-.2187-.5156-.6406-.8594-.4062-.3593-1.0312-.5468-.625-.1875-1.5782-.1875h-2.4062v5.3437h2.9219q.6875 0 1.203-.1562.5157-.172.9063-.4844.4063-.3281.625-.7969.2188-.4844.2188-1.125zm14.7734-1.4531q0 1.2969-.3437 2.375-.3438 1.0781-1.0157 1.875-.6718.7812-1.6875 1.2187-1.0156.4375-2.3437.4375-1.3125 0-2.2813-.375-.953-.3906-1.6093-1.125-.6407-.75-.9532-1.7968-.3125-1.0625-.3125-2.3907 0-1.2968.3282-2.375.328-1.0937 1-1.875.6875-.7812 1.6875-1.2187 1.0156-.4375 2.3593-.4375 1.297 0 2.2657.3906.9687.3906 1.6093 1.125.6407.7344.9688 1.7969.3281 1.0469.3281 2.375zm-2.0469.125q0-.8438-.1562-1.6094-.1563-.7656-.5313-1.3281-.3593-.5781-.9843-.9063-.6094-.3437-1.5313-.3437-.8594 0-1.4844.3125-.6093.2969-1.0156.8594-.3906.5468-.5937 1.3125-.1875.7656-.1875 1.6562 0 .875.1562 1.6406.1719.75.5313 1.3282.375.5625.9843.9062.625.3281 1.5625.3281.8438 0 1.4532-.2968.625-.3125 1.0156-.8594.4062-.5625.5937-1.3125.1875-.7656.1875-1.6875zm12.8282 5.2812q0 .1407-.0938.2188-.0937.0625-.2656.0937-.1563.0469-.4688.0469-.2968 0-.4843-.0469-.1875-.0312-.2657-.0937-.078-.0781-.078-.2188v-1.0625q-.6876.75-1.547 1.1563-.8437.4062-1.7968.4062-.8282 0-1.5-.2187-.672-.2188-1.1563-.625-.4687-.4063-.7344-1-.2656-.6094-.2656-1.3594 0-.8906.3594-1.5469.375-.6562 1.0469-1.0937.6875-.4375 1.6718-.6563.9844-.2187 2.2032-.2187h1.453v-.8125q0-.6094-.125-1.0781-.125-.4688-.4218-.7813-.2812-.3125-.7344-.4687-.453-.1563-1.125-.1563-.7187 0-1.2968.1719-.5625.1719-.9844.375-.4219.2031-.7188.375-.2812.1719-.4218.1719-.0938 0-.172-.047-.0624-.0468-.125-.1405-.0468-.0938-.078-.2344-.0157-.1563-.0157-.3281 0-.297.0313-.4688.0469-.1719.2031-.3125.1719-.1562.5469-.3594.3906-.2187.8906-.375.5156-.1718 1.1094-.2812.5937-.125 1.2031-.125 1.1406 0 1.9375.2656.7969.25 1.2813.75.5.5.7187 1.25.2188.7344.2188 1.7188v7.1093zm-1.922-4.8125h-1.6405q-.797 0-1.3907.1407-.578.125-.9687.3906-.3906.2656-.5781.6406-.172.3594-.172.8438 0 .8125.5157 1.2968.5313.4844 1.4688.4844.75 0 1.4062-.375.6563-.3906 1.3594-1.1875v-2.2344zm10.7423 4.0313q0 .3281-.0469.5312-.0469.2032-.1406.2969-.0938.0938-.2813.1875-.1875.0781-.4375.125-.2343.0469-.5.0781-.2656.0469-.5468.0469-.8125 0-1.4063-.2187-.5781-.2188-.9531-.6563t-.5469-1.1094q-.1719-.6875-.1719-1.5937v-6.1719h-1.4687q-.1875 0-.2969-.1875-.0937-.1875-.0937-.6094 0-.2187.0312-.3593.0313-.1563.0781-.25.047-.1094.1094-.1407.0781-.0468.1719-.0468h1.4687v-2.5157q0-.0781.0313-.1406.0469-.0781.1562-.125.125-.0625.3125-.0781.1875-.0313.4688-.0313.2812 0 .4687.0313.1875.0156.297.0781.1093.0469.1562.125.0468.0625.0468.1406v2.5157h2.7032q.0937 0 .1562.0468.0781.0313.125.1407.0625.0937.0781.25.0313.1406.0313.3593 0 .4219-.1094.6094-.1094.1875-.2812.1875h-2.7032v5.8906q0 1.0938.3125 1.6563.3282.5469 1.1563.5469.2812 0 .4844-.047.2187-.0624.375-.1093.1718-.0625.2812-.1094.125-.0625.2188-.0625.0468 0 .0937.0313.0625.0312.0938.1094.0312.078.0468.2187.0313.1406.0313.3594z"/>
      </g>
    </g>
    <defs>
      <filter id="e" filterUnits="userSpaceOnUse">
        <feGaussianBlur in="SourceAlpha" result="blur" stdDeviation="1.3998"/>
        <feComponentTransfer color-interpolation-filters="sRGB" in="blur">
          <feFuncR slope="0" type="linear"/>
          <feFuncG slope="0" type="linear"/>
          <feFuncB slope="0" type="linear"/>
          <feFuncA slope=".349" type="linear"/>
        </feComponentTransfer>
      </filter>
    </defs>
    <g id="f">
      <defs>
        <linearGradient id="g" x1="44.5224" x2="44.5225" y1="41.6156" y2="31.9095" gradientTransform="scale(9.70605)" gradientUnits="userSpaceOnUse" spreadMethod="pad">
          <stop offset="0" stop-color="#3e7fcd"/>
          <stop offset="1" stop-color="#96c0ff"/>
        </linearGradient>
      </defs>
      <path fill="url(#g)" fill-rule="evenodd" d="M192.9869 356.8176c0-26.014 53.5354-47.1024 119.5748-47.1024 66.0393 0 119.5748 21.0885 119.5748 47.1024 0 26.014-53.5355 47.1024-119.5748 47.1024-66.0394 0-119.5748-21.0885-119.5748-47.1024z"/>
      <path fill-rule="evenodd" stroke="#4a7dba" stroke-linecap="butt" stroke-linejoin="round" d="M192.9869 356.8176c0-26.014 53.5354-47.1024 119.5748-47.1024 66.0393 0 119.5748 21.0885 119.5748 47.1024 0 26.014-53.5355 47.1024-119.5748 47.1024-66.0394 0-119.5748-21.0885-119.5748-47.1024z"/>
      <path fill="#fff" d="M302.0656 361.1138q0 .7032-.1875 1.3125-.1719.6094-.5 1.0938-.3281.4687-.7969.8437-.4687.3594-1.0469.6094-.578.2344-1.25.3594-.6562.125-1.5.125h-3.9687q-.2656 0-.5156-.1719-.2344-.1875-.2344-.6562v-13.5157q0-.4531.2344-.6406.25-.1875.5156-.1875h3.4531q1.3594 0 2.2188.2656.875.25 1.453.75.5782.4844.8595 1.2032.2968.7187.2968 1.625 0 .5312-.125 1.0312-.125.4844-.375.9063-.25.4062-.6406.7343-.375.3282-.875.5469.625.1094 1.1563.4219.5468.3125.953.7969.4063.4843.6407 1.125.2344.6406.2344 1.4218zm-3.0313-6.7968q0-.547-.1562-.9844-.1563-.4531-.4844-.7656-.3281-.3125-.8594-.4688-.5156-.1719-1.3906-.1719h-2.0781v4.9219h2.2969q.7812 0 1.25-.2031.4843-.2188.7968-.5625.3282-.3438.4688-.7969.1562-.4687.1562-.9687zm.9063 6.9062q0-.6719-.2188-1.1875-.2187-.5156-.6406-.8594-.4062-.3593-1.0312-.5468-.625-.1875-1.5782-.1875h-2.4062v5.3437h2.9219q.6875 0 1.203-.1562.5157-.172.9063-.4844.4063-.3281.625-.7969.2188-.4844.2188-1.125zm14.7734-1.4531q0 1.2969-.3437 2.375-.3438 1.0781-1.0157 1.875-.6718.7812-1.6875 1.2187-1.0156.4375-2.3437.4375-1.3125 0-2.2813-.375-.953-.3906-1.6093-1.125-.6407-.75-.9532-1.7968-.3125-1.0625-.3125-2.3907 0-1.2968.3282-2.375.328-1.0937 1-1.875.6875-.7812 1.6875-1.2187 1.0156-.4375 2.3593-.4375 1.297 0 2.2657.3906.9687.3906 1.6093 1.125.6407.7344.9688 1.7969.3281 1.0469.3281 2.375zm-2.0469.125q0-.8438-.1562-1.6094-.1563-.7656-.5313-1.3281-.3593-.5781-.9843-.9063-.6094-.3437-1.5313-.3437-.8594 0-1.4844.3125-.6093.2969-1.0156.8594-.3906.5468-.5937 1.3125-.1875.7656-.1875 1.6562 0 .875.1562 1.6406.1719.75.5313 1.3282.375.5625.9843.9062.625.3281 1.5625.3281.8438 0 1.4532-.2968.625-.3125 1.0156-.8594.4062-.5625.5937-1.3125.1875-.7656.1875-1.6875zm12.8282 5.2812q0 .1407-.0938.2188-.0937.0625-.2656.0937-.1563.0469-.4688.0469-.2968 0-.4843-.0469-.1875-.0312-.2657-.0937-.078-.0781-.078-.2188v-1.0625q-.6876.75-1.547 1.1563-.8437.4062-1.7968.4062-.8282 0-1.5-.2187-.672-.2188-1.1563-.625-.4687-.4063-.7344-1-.2656-.6094-.2656-1.3594 0-.8906.3594-1.5469.375-.6562 1.0469-1.0937.6875-.4375 1.6718-.6563.9844-.2187 2.2032-.2187h1.453v-.8125q0-.6094-.125-1.0781-.125-.4688-.4218-.7813-.2812-.3125-.7344-.4687-.453-.1563-1.125-.1563-.7187 0-1.2968.1719-.5625.1719-.9844.375-.4219.2031-.7188.375-.2812.1719-.4218.1719-.0938 0-.172-.047-.0624-.0468-.125-.1405-.0468-.0938-.078-.2344-.0157-.1563-.0157-.3281 0-.297.0313-.4688.0469-.1719.2031-.3125.1719-.1562.5469-.3594.3906-.2187.8906-.375.5156-.1718 1.1094-.2812.5937-.125 1.2031-.125 1.1406 0 1.9375.2656.7969.25 1.2813.75.5.5.7187 1.25.2188.7344.2188 1.7188v7.1093zm-1.922-4.8125h-1.6405q-.797 0-1.3907.1407-.578.125-.9687.3906-.3906.2656-.5781.6406-.172.3594-.172.8438 0 .8125.5157 1.2968.5313.4844 1.4688.4844.75 0 1.4062-.375.6563-.3906 1.3594-1.1875v-2.2344zm10.7423 4.0313q0 .3281-.0469.5312-.0469.2032-.1406.2969-.0938.0938-.2813.1875-.1875.0781-.4375.125-.2343.0469-.5.0781-.2656.0469-.5468.0469-.8125 0-1.4063-.2187-.5781-.2188-.9531-.6563t-.5469-1.1094q-.1719-.6875-.1719-1.5937v-6.1719h-1.4687q-.1875 0-.2969-.1875-.0937-.1875-.0937-.6094 0-.2187.0312-.3593.0313-.1563.0781-.25.047-.1094.1094-.1407.0781-.0468.1719-.0468h1.4687v-2.5157q0-.0781.0313-.1406.0469-.0781.1562-.125.125-.0625.3125-.0781.1875-.0313.4688-.0313.2812 0 .4687.0313.1875.0156.297.0781.1093.0469.1562.125.0468.0625.0468.1406v2.5157h2.7032q.0937 0 .1562.0468.0781.0313.125.1407.0625.0937.0781.25.0313.1406.0313.3593 0 .4219-.1094.6094-.1094.1875-.2812.1875h-2.7032v5.8906q0 1.0938.3125 1.6563.3282.5469 1.1563.5469.2812 0 .4844-.047.2187-.0624.375-.1093.1718-.0625.2812-.1094.125-.0625.2188-.0625.0468 0 .0937.0313.0625.0312.0938.1094.0312.078.0468.2187.0313.1406.0313.3594z"/>
    </g>
    <g filter="url(#h)">
      <g transform="matrix(1, 0, 0, 1, 0, 2.4147000312805176)">
        <path fill="url(#j)" fill-rule="evenodd" d="M527.8635 356.8176c0-26.014 53.5355-47.1024 119.5748-47.1024s119.5748 21.0885 119.5748 47.1024c0 26.014-53.5355 47.1024-119.5748 47.1024s-119.5748-21.0885-119.5748-47.1024z"/>
        <path fill-rule="evenodd" stroke="#4a7dba" stroke-linecap="butt" stroke-linejoin="round" d="M527.8635 356.8176c0-26.014 53.5355-47.1024 119.5748-47.1024s119.5748 21.0885 119.5748 47.1024c0 26.014-53.5355 47.1024-119.5748 47.1024s-119.5748-21.0885-119.5748-47.1024z"/>
        <path fill="#fff" d="M631.7899 354.7388q0 1.125-.375 2.0469-.375.9063-1.0782 1.5625-.6875.6406-1.703 1-1.0157.3438-2.422.3438h-1.7187v5.453q0 .0938-.0625.172-.0469.0625-.1563.1093-.1093.0469-.3125.0782-.1875.0312-.4687.0312-.2969 0-.5-.0312-.1875-.0313-.3125-.0782-.1094-.0468-.1563-.1093-.0468-.0782-.0468-.172v-13.9843q0-.4687.25-.6719.25-.2031.5468-.2031h3.25q.4844 0 .9375.0469.4532.0469 1.0625.1875.625.125 1.2657.5.6406.3594 1.078.9062.4532.5313.6876 1.25.2344.7032.2344 1.5625zm-2.1094.1563q0-.9219-.3594-1.5469-.3437-.625-.8594-.9219-.5-.3125-1.0468-.3906-.547-.0781-1.0625-.0781h-1.8594v6.0781h1.8125q.9219 0 1.5156-.2344.6094-.2343 1.0156-.6406.422-.4219.625-1 .2188-.5781.2188-1.2656zm6.914 10.2656q0 .0938-.0468.1563-.0469.0625-.1563.125-.1094.0468-.2969.0625-.1875.0312-.4843.0312-.2813 0-.4688-.0312-.1875-.0157-.2969-.0625-.1093-.0625-.1562-.125-.0313-.0625-.0313-.1563v-15.6562q0-.0938.0313-.1563.0469-.0781.1562-.125.1094-.0469.297-.0625.1874-.0312.4687-.0312.2968 0 .4843.0312.1875.0156.297.0625.1093.0469.1562.125.0468.0625.0468.1563v15.6562zm11.5079.0156q0 .1407-.0938.2188-.0937.0625-.2656.0937-.1563.0469-.4688.0469-.2968 0-.4843-.0469-.1875-.0312-.2657-.0937-.078-.0781-.078-.2188v-1.0625q-.6876.75-1.547 1.1563-.8437.4062-1.7968.4062-.8282 0-1.5-.2187-.672-.2188-1.1563-.625-.4687-.4063-.7344-1-.2656-.6094-.2656-1.3594 0-.8906.3594-1.5469.375-.6562 1.0469-1.0937.6875-.4375 1.6718-.6563.9844-.2187 2.2032-.2187h1.453v-.8125q0-.6094-.125-1.0781-.125-.4688-.4218-.7813-.2812-.3125-.7344-.4687-.453-.1563-1.125-.1563-.7187 0-1.2968.1719-.5625.1719-.9844.375-.4219.2031-.7188.375-.2812.1719-.4218.1719-.0938 0-.172-.047-.0624-.0468-.125-.1405-.0468-.0938-.078-.2344-.0157-.1563-.0157-.3281 0-.297.0313-.4688.0469-.1719.2031-.3125.1719-.1562.5469-.3594.3906-.2187.8906-.375.5156-.1718 1.1094-.2812.5937-.125 1.2031-.125 1.1406 0 1.9375.2656.7969.25 1.2813.75.5.5.7187 1.25.2188.7344.2188 1.7188v7.1093zm-1.922-4.8125H644.54q-.797 0-1.3907.1407-.578.125-.9687.3906-.3906.2656-.5781.6406-.172.3594-.172.8438 0 .8125.5157 1.2968.5313.4844 1.4688.4844.75 0 1.4062-.375.6563-.3906 1.3594-1.1875v-2.2344zm14.5587 4.7969q0 .0938-.0469.1563t-.1562.125q-.0938.0468-.2813.0625-.1875.0312-.4687.0312-.297 0-.4844-.0312-.1875-.0157-.2969-.0625-.1094-.0625-.1562-.125-.047-.0625-.047-.1563v-6.1719q0-.9062-.1405-1.4531-.1407-.5469-.4063-.9375-.2656-.4062-.7031-.6094-.4219-.2187-.9844-.2187-.7187 0-1.4531.5156-.7188.5156-1.5156 1.5v7.375q0 .0938-.047.1563-.0468.0625-.1562.125-.1093.0468-.2968.0625-.1875.0312-.4844.0312-.2813 0-.4688-.0312-.1875-.0157-.2968-.0625-.1094-.0625-.1563-.125-.0312-.0625-.0312-.1563v-10.5469q0-.0937.0312-.1562.0313-.0625.1406-.1094.1094-.0625.2657-.0781.1718-.0156.4375-.0156.2656 0 .4218.0156.1719.0156.2657.0781.0937.0469.1406.1094t.0469.1562v1.3907q.8906-.9844 1.7656-1.4532.8906-.4687 1.7969-.4687 1.0468 0 1.7656.3594.7187.3593 1.1562.9687.4532.5938.6407 1.3906.203.7969.203 1.9219v6.4375zm12.5312-5.7344q0 .4688-.2343.6563-.2188.1875-.5157.1875h-6.9218q0 .8906.1718 1.5937.1875.7032.5938 1.2032.4062.5 1.0625.7812.6562.2656 1.6094.2656.75 0 1.328-.125.5938-.125 1.0157-.2812.4375-.1563.7031-.2656.2813-.125.4219-.125.0781 0 .1406.0468.0782.0313.1094.1094.0313.0781.0469.2344.0156.1406.0156.3594 0 .1406-.0156.2656 0 .1094-.0156.2031-.0157.0781-.0625.1563-.047.0625-.1094.125-.0625.0625-.375.2187-.3125.1406-.8281.2813-.5.1406-1.172.25-.6562.1093-1.4062.1093-1.2968 0-2.2812-.3593-.9688-.3594-1.6406-1.0782-.672-.7187-1.0157-1.7968-.3281-1.0782-.3281-2.5 0-1.3594.3438-2.4375.3593-1.0938 1.0156-1.8438.6719-.7656 1.6094-1.1719.9375-.4062 2.0937-.4062 1.2344 0 2.1094.4062.875.3907 1.4375 1.0782.5625.6718.8281 1.578.2656.9063.2656 1.9376v.3437zm-1.9531-.5625q.0469-1.5312-.6719-2.3906-.7031-.875-2.0937-.875-.7188 0-1.2656.2813-.5313.2656-.9063.7187-.3594.4375-.5625 1.0313-.1875.578-.2187 1.2343h5.7187z"/>
      </g>
    </g>
    <defs>
      <filter id="h" filterUnits="userSpaceOnUse">
        <feGaussianBlur in="SourceAlpha" result="blur" stdDeviation="1.3998"/>
        <feComponentTransfer color-interpolation-filters="sRGB" in="blur">
          <feFuncR slope="0" type="linear"/>
          <feFuncG slope="0" type="linear"/>
          <feFuncB slope="0" type="linear"/>
          <feFuncA slope=".349" type="linear"/>
        </feComponentTransfer>
      </filter>
    </defs>
    <g id="i">
      <defs>
        <linearGradient id="j" x1="79.0243" x2="79.0244" y1="41.6156" y2="31.9095" gradientTransform="scale(9.70605)" gradientUnits="userSpaceOnUse" spreadMethod="pad">
          <stop offset="0" stop-color="#3e7fcd"/>
          <stop offset="1" stop-color="#96c0ff"/>
        </linearGradient>
      </defs>
      <path fill="url(#j)" fill-rule="evenodd" d="M527.8635 356.8176c0-26.014 53.5355-47.1024 119.5748-47.1024s119.5748 21.0885 119.5748 47.1024c0 26.014-53.5355 47.1024-119.5748 47.1024s-119.5748-21.0885-119.5748-47.1024z"/>
      <path fill-rule="evenodd" stroke="#4a7dba" stroke-linecap="butt" stroke-linejoin="round" d="M527.8635 356.8176c0-26.014 53.5355-47.1024 119.5748-47.1024s119.5748 21.0885 119.5748 47.1024c0 26.014-53.5355 47.1024-119.5748 47.1024s-119.5748-21.0885-119.5748-47.1024z"/>
      <path fill="#fff" d="M631.7899 354.7388q0 1.125-.375 2.0469-.375.9063-1.0782 1.5625-.6875.6406-1.703 1-1.0157.3438-2.422.3438h-1.7187v5.453q0 .0938-.0625.172-.0469.0625-.1563.1093-.1093.0469-.3125.0782-.1875.0312-.4687.0312-.2969 0-.5-.0312-.1875-.0313-.3125-.0782-.1094-.0468-.1563-.1093-.0468-.0782-.0468-.172v-13.9843q0-.4687.25-.6719.25-.2031.5468-.2031h3.25q.4844 0 .9375.0469.4532.0469 1.0625.1875.625.125 1.2657.5.6406.3594 1.078.9062.4532.5313.6876 1.25.2344.7032.2344 1.5625zm-2.1094.1563q0-.9219-.3594-1.5469-.3437-.625-.8594-.9219-.5-.3125-1.0468-.3906-.547-.0781-1.0625-.0781h-1.8594v6.0781h1.8125q.9219 0 1.5156-.2344.6094-.2343 1.0156-.6406.422-.4219.625-1 .2188-.5781.2188-1.2656zm6.914 10.2656q0 .0938-.0468.1563-.0469.0625-.1563.125-.1094.0468-.2969.0625-.1875.0312-.4843.0312-.2813 0-.4688-.0312-.1875-.0157-.2969-.0625-.1093-.0625-.1562-.125-.0313-.0625-.0313-.1563v-15.6562q0-.0938.0313-.1563.0469-.0781.1562-.125.1094-.0469.297-.0625.1874-.0312.4687-.0312.2968 0 .4843.0312.1875.0156.297.0625.1093.0469.1562.125.0468.0625.0468.1563v15.6562zm11.5079.0156q0 .1407-.0938.2188-.0937.0625-.2656.0937-.1563.0469-.4688.0469-.2968 0-.4843-.0469-.1875-.0312-.2657-.0937-.078-.0781-.078-.2188v-1.0625q-.6876.75-1.547 1.1563-.8437.4062-1.7968.4062-.8282 0-1.5-.2187-.672-.2188-1.1563-.625-.4687-.4063-.7344-1-.2656-.6094-.2656-1.3594 0-.8906.3594-1.5469.375-.6562 1.0469-1.0937.6875-.4375 1.6718-.6563.9844-.2187 2.2032-.2187h1.453v-.8125q0-.6094-.125-1.0781-.125-.4688-.4218-.7813-.2812-.3125-.7344-.4687-.453-.1563-1.125-.1563-.7187 0-1.2968.1719-.5625.1719-.9844.375-.4219.2031-.7188.375-.2812.1719-.4218.1719-.0938 0-.172-.047-.0624-.0468-.125-.1405-.0468-.0938-.078-.2344-.0157-.1563-.0157-.3281 0-.297.0313-.4688.0469-.1719.2031-.3125.1719-.1562.5469-.3594.3906-.2187.8906-.375.5156-.1718 1.1094-.2812.5937-.125 1.2031-.125 1.1406 0 1.9375.2656.7969.25 1.2813.75.5.5.7187 1.25.2188.7344.2188 1.7188v7.1093zm-1.922-4.8125H644.54q-.797 0-1.3907.1407-.578.125-.9687.3906-.3906.2656-.5781.6406-.172.3594-.172.8438 0 .8125.5157 1.2968.5313.4844 1.4688.4844.75 0 1.4062-.375.6563-.3906 1.3594-1.1875v-2.2344zm14.5587 4.7969q0 .0938-.0469.1563t-.1562.125q-.0938.0468-.2813.0625-.1875.0312-.4687.0312-.297 0-.4844-.0312-.1875-.0157-.2969-.0625-.1094-.0625-.1562-.125-.047-.0625-.047-.1563v-6.1719q0-.9062-.1405-1.4531-.1407-.5469-.4063-.9375-.2656-.4062-.7031-.6094-.4219-.2187-.9844-.2187-.7187 0-1.4531.5156-.7188.5156-1.5156 1.5v7.375q0 .0938-.047.1563-.0468.0625-.1562.125-.1093.0468-.2968.0625-.1875.0312-.4844.0312-.2813 0-.4688-.0312-.1875-.0157-.2968-.0625-.1094-.0625-.1563-.125-.0312-.0625-.0312-.1563v-10.5469q0-.0937.0312-.1562.0313-.0625.1406-.1094.1094-.0625.2657-.0781.1718-.0156.4375-.0156.2656 0 .4218.0156.1719.0156.2657.0781.0937.0469.1406.1094t.0469.1562v1.3907q.8906-.9844 1.7656-1.4532.8906-.4687 1.7969-.4687 1.0468 0 1.7656.3594.7187.3593 1.1562.9687.4532.5938.6407 1.3906.203.7969.203 1.9219v6.4375zm12.5312-5.7344q0 .4688-.2343.6563-.2188.1875-.5157.1875h-6.9218q0 .8906.1718 1.5937.1875.7032.5938 1.2032.4062.5 1.0625.7812.6562.2656 1.6094.2656.75 0 1.328-.125.5938-.125 1.0157-.2812.4375-.1563.7031-.2656.2813-.125.4219-.125.0781 0 .1406.0468.0782.0313.1094.1094.0313.0781.0469.2344.0156.1406.0156.3594 0 .1406-.0156.2656 0 .1094-.0156.2031-.0157.0781-.0625.1563-.047.0625-.1094.125-.0625.0625-.375.2187-.3125.1406-.8281.2813-.5.1406-1.172.25-.6562.1093-1.4062.1093-1.2968 0-2.2812-.3593-.9688-.3594-1.6406-1.0782-.672-.7187-1.0157-1.7968-.3281-1.0782-.3281-2.5 0-1.3594.3438-2.4375.3593-1.0938 1.0156-1.8438.6719-.7656 1.6094-1.1719.9375-.4062 2.0937-.4062 1.2344 0 2.1094.4062.875.3907 1.4375 1.0782.5625.6718.8281 1.578.2656.9063.2656 1.9376v.3437zm-1.9531-.5625q.0469-1.5312-.6719-2.3906-.7031-.875-2.0937-.875-.7188 0-1.2656.2813-.5313.2656-.9063.7187-.3594.4375-.5625 1.0313-.1875.578-.2187 1.2343h5.7187z"/>
    </g>
    <g filter="url(#k)">
      <g transform="matrix(1, 0, 0, 1, 0, 2.4147000312805176)">
        <path fill="url(#m)" fill-rule="evenodd" d="M349.4226 499.7914c0-26.014 53.5354-47.1024 119.5748-47.1024 66.0393 0 119.5748 21.0884 119.5748 47.1023 0 26.014-53.5355 47.1024-119.5748 47.1024-66.0394 0-119.5748-21.0885-119.5748-47.1023z"/>
        <path fill-rule="evenodd" stroke="#4a7dba" stroke-linecap="butt" stroke-linejoin="round" d="M349.4226 499.7914c0-26.014 53.5354-47.1024 119.5748-47.1024 66.0393 0 119.5748 21.0884 119.5748 47.1023 0 26.014-53.5355 47.1024-119.5748 47.1024-66.0394 0-119.5748-21.0885-119.5748-47.1023z"/>
        <path fill="#fff" d="M434.8392 504.1813q0 1.0625-.3907 1.8907-.3906.828-1.0937 1.4218-.6875.5782-1.6406.875-.9375.2813-2.0313.2813-.75 0-1.4062-.125-.6563-.125-1.1719-.3125-.5-.1875-.8438-.3906-.3437-.2032-.4843-.3438-.125-.1406-.2032-.3594-.0625-.2187-.0625-.578 0-.25.0157-.422.0312-.1718.0781-.2812.0469-.1094.1094-.1406.0781-.047.1718-.047.172 0 .4688.2032.2969.2031.7656.4375.4688.2344 1.125.4375.6719.2031 1.5313.2031.6562 0 1.2031-.1718.5469-.1875.9375-.5.3906-.3282.5937-.797.2188-.4687.2188-1.0624 0-.6406-.2969-1.0938-.2812-.4687-.7656-.8125-.4844-.3437-1.0938-.625-.6093-.2968-1.2656-.5937-.6406-.2969-1.25-.6563-.6094-.375-1.0937-.8593-.4688-.5-.7813-1.1563-.2969-.6562-.2969-1.5937 0-.9375.3438-1.6875.3594-.75.9687-1.25.6094-.5 1.4532-.7657.8593-.2656 1.8437-.2656.5 0 1.0156.0938.5157.078.9532.2343.4531.1407.7968.3282.3594.1718.4688.2968.125.1094.1562.172.0313.0624.047.1718.0312.0937.0468.2344.0156.1406.0156.3593 0 .2032-.0312.375-.0157.1563-.0469.2813-.0313.1094-.0938.1562-.0625.047-.1562.047-.125 0-.4063-.1563-.2656-.172-.6718-.375-.3907-.2032-.9375-.375-.5469-.172-1.2188-.172-.6406 0-1.1094.172-.4687.1718-.7812.453-.2969.2813-.4531.672-.1407.3906-.1407.8125 0 .6406.2813 1.0937.2969.4531.7812.8125.4844.3438 1.1094.6406.625.297 1.2656.5938.6407.2969 1.2657.6562.625.3594 1.1093.8438.4844.4844.7813 1.1562.2969.6563.2969 1.5625zm11.668-1.7812q0 .4687-.2344.6562-.2188.1875-.5157.1875h-6.9218q0 .8907.1718 1.5938.1875.7031.5938 1.2031.4062.5 1.0625.7813.6562.2656 1.6094.2656.75 0 1.328-.125.5938-.125 1.0157-.2813.4375-.1562.7031-.2656.2813-.125.422-.125.078 0 .1405.0469.0782.0312.1094.1094.0313.078.0469.2343.0156.1407.0156.3594 0 .1406-.0156.2656 0 .1094-.0156.2032-.0157.078-.0625.1562-.047.0625-.1094.125-.0625.0625-.375.2188-.3125.1406-.8281.2812-.5.1406-1.172.25-.6562.1094-1.4062.1094-1.2968 0-2.2812-.3594-.9688-.3594-1.6406-1.0781-.672-.7188-1.0157-1.7969-.328-1.0781-.328-2.5 0-1.3594.3437-2.4375.3593-1.0937 1.0156-1.8437.6719-.7657 1.6094-1.172.9375-.4062 2.0937-.4062 1.2344 0 2.1094.4063.875.3906 1.4375 1.0781.5625.6719.8281 1.5781.2656.9063.2656 1.9375v.3438zm-1.9532-.5625q.0469-1.5313-.6719-2.3906-.703-.875-2.0937-.875-.7188 0-1.2656.2812-.5313.2656-.9063.7188-.3594.4375-.5625 1.0312-.1875.5781-.2187 1.2344h5.7187zm12.832 6.3125q0 .1406-.0937.2187-.0938.0625-.2656.0938-.1563.0469-.4688.0469-.2969 0-.4844-.047-.1875-.0312-.2656-.0937-.0781-.078-.0781-.2187v-1.0625q-.6875.75-1.5469 1.1562-.8437.4063-1.7969.4063-.828 0-1.5-.2188-.6718-.2187-1.1562-.625-.4688-.4062-.7344-1-.2656-.6093-.2656-1.3593 0-.8907.3594-1.547.375-.6562 1.0468-1.0937.6875-.4375 1.672-.6562.9843-.2188 2.203-.2188h1.4532v-.8125q0-.6093-.125-1.078-.125-.4688-.4219-.7813-.2813-.3125-.7344-.4688-.4531-.1562-1.125-.1562-.7187 0-1.2969.1718-.5625.172-.9843.375-.4219.2032-.7188.375-.2812.172-.4219.172-.0937 0-.1718-.047-.0625-.0468-.125-.1406-.0469-.0937-.0782-.2344-.0156-.1562-.0156-.328 0-.297.0313-.4688.0468-.172.2031-.3125.1719-.1563.5469-.3594.3906-.2188.8906-.375.5156-.1719 1.1094-.2813.5937-.125 1.2031-.125 1.1406 0 1.9375.2657.7969.25 1.2812.75.5.5.7188 1.25.2187.7343.2187 1.7187v7.1094zm-1.9218-4.8125h-1.6407q-.7968 0-1.3906.1406-.5781.125-.9687.3906-.3907.2657-.5782.6407-.1718.3593-.1718.8437 0 .8125.5156 1.2969.5312.4844 1.4687.4844.75 0 1.4063-.375.6562-.3907 1.3594-1.1875v-2.2344zm15.1836-.6406q0 1.3906-.297 2.5-.2968 1.0937-.8905 1.8593-.5782.7657-1.4375 1.1875-.8438.4063-1.9532.4063-.4687 0-.875-.0938-.3906-.0937-.7656-.2812-.375-.2031-.75-.5-.375-.3125-.7969-.7344v5.2813q0 .0937-.0468.1562-.047.0781-.1563.125-.1094.0469-.2969.0625-.1875.0313-.4843.0313-.2813 0-.4688-.0313-.1875-.0156-.2969-.0625-.1093-.0469-.1562-.125-.0313-.0625-.0313-.1562v-14.7344q0-.1094.0313-.1719.0312-.0625.1406-.1094.1094-.0468.2656-.0625.172-.0156.4063-.0156.25 0 .4062.0156.1563.0157.25.0625.1094.047.1563.1094.0469.0625.0469.1719v1.4219q.4687-.5.9062-.8594.4531-.3594.9063-.5938.453-.25.9218-.375.4844-.125 1.0157-.125 1.1406 0 1.953.4532.8126.4375 1.3126 1.2187.5156.7656.75 1.7969.2344 1.0312.2344 2.1719zm-2.047.2187q0-.7969-.125-1.5469-.1093-.7656-.4218-1.3437-.2969-.5938-.7969-.9375-.5-.3594-1.25-.3594-.375 0-.75.1094-.3593.1094-.7343.3594-.375.2343-.7813.625-.4062.3906-.8594.9687v4.1875q.797.9844 1.5 1.5.7188.5156 1.5.5156.7344 0 1.25-.3437.5313-.3594.8438-.9375.3281-.5938.4687-1.3125.1563-.7344.1563-1.4844zm6.8907 5.2188q0 .0937-.0469.1562-.0468.0625-.1562.125-.1094.0469-.2969.0625-.1875.0313-.4844.0313-.2812 0-.4687-.0313-.1875-.0156-.2969-.0625-.1094-.0625-.1562-.125-.0313-.0625-.0313-.1562v-15.6563q0-.0937.0313-.1562.0468-.0782.1562-.125.1094-.047.2969-.0625.1875-.0313.4687-.0313.297 0 .4844.0313.1875.0156.2969.0625.1094.0468.1562.125.047.0625.047.1562v15.6563zm11.5078.0156q0 .1406-.0937.2187-.0938.0625-.2656.0938-.1563.0469-.4688.0469-.2969 0-.4844-.047-.1875-.0312-.2656-.0937-.0781-.078-.0781-.2187v-1.0625q-.6875.75-1.5469 1.1562-.8437.4063-1.7969.4063-.8281 0-1.5-.2188-.6718-.2187-1.1562-.625-.4688-.4062-.7344-1-.2656-.6093-.2656-1.3593 0-.8907.3594-1.547.375-.6562 1.0468-1.0937.6875-.4375 1.6719-.6562.9844-.2188 2.2031-.2188h1.4532v-.8125q0-.6093-.125-1.078-.125-.4688-.422-.7813-.2812-.3125-.7343-.4688-.4531-.1562-1.125-.1562-.7187 0-1.2969.1718-.5625.172-.9843.375-.422.2032-.7188.375-.2812.172-.4219.172-.0937 0-.1718-.047-.0625-.0468-.125-.1406-.047-.0937-.0782-.2344-.0156-.1562-.0156-.328 0-.297.0313-.4688.0468-.172.203-.3125.172-.1563.547-.3594.3906-.2188.8906-.375.5156-.1719 1.1094-.2813.5937-.125 1.203-.125 1.1407 0 1.9376.2657.7969.25 1.2812.75.5.5.7188 1.25.2187.7343.2187 1.7187v7.1094zm-1.9218-4.8125h-1.6407q-.7968 0-1.3906.1406-.5781.125-.9687.3906-.3907.2657-.5782.6407-.1718.3593-.1718.8437 0 .8125.5156 1.2969.5312.4844 1.4687.4844.75 0 1.4063-.375.6562-.3907 1.3594-1.1875v-2.2344zm14.5585 4.7969q0 .0937-.0468.1562-.0469.0625-.1563.125-.0937.0469-.2812.0625-.1875.0313-.4688.0313-.2969 0-.4844-.0313-.1875-.0156-.2968-.0625-.1094-.0625-.1563-.125t-.0469-.1562v-6.172q0-.9062-.1406-1.453-.1406-.547-.4062-.9375-.2657-.4063-.7032-.6094-.4218-.2188-.9843-.2188-.7188 0-1.4532.5157-.7187.5156-1.5156 1.5v7.375q0 .0937-.0469.1562-.0468.0625-.1562.125-.1094.0469-.2969.0625-.1875.0313-.4844.0313-.2812 0-.4687-.0313-.1875-.0156-.2969-.0625-.1094-.0625-.1562-.125-.0313-.0625-.0313-.1562v-10.547q0-.0937.0313-.1562.0312-.0625.1406-.1093.1094-.0625.2656-.0782.1719-.0156.4375-.0156t.4219.0156q.1719.0157.2656.0782.0938.0468.1406.1093.047.0625.047.1563v1.3906q.8905-.9844 1.7655-1.4531.8907-.4688 1.797-.4688 1.0468 0 1.7655.3594.7188.3594 1.1563.9688.4531.5937.6406 1.3906.2031.7969.2031 1.9219v6.4375zm12.5313-5.7344q0 .4687-.2344.6562-.2187.1875-.5156.1875h-6.9219q0 .8907.1719 1.5938.1875.7031.5937 1.2031.4063.5 1.0625.7813.6563.2656 1.6094.2656.75 0 1.3281-.125.5938-.125 1.0157-.2813.4375-.1562.7031-.2656.2812-.125.4219-.125.0781 0 .1406.0469.0781.0312.1094.1094.0312.078.0468.2343.0157.1407.0157.3594 0 .1406-.0157.2656 0 .1094-.0156.2032-.0156.078-.0625.1562-.0469.0625-.1094.125t-.375.2188q-.3125.1406-.828.2812-.5.1406-1.172.25-.6562.1094-1.4062.1094-1.2969 0-2.2813-.3594-.9687-.3594-1.6406-1.0781-.6719-.7188-1.0156-1.7969-.3281-1.0781-.3281-2.5 0-1.3594.3437-2.4375.3594-1.0937 1.0156-1.8437.672-.7657 1.6094-1.172.9375-.4062 2.0938-.4062 1.2343 0 2.1093.4063.875.3906 1.4375 1.0781.5625.6719.8282 1.5781.2656.9063.2656 1.9375v.3438zm-1.9531-.5625q.0468-1.5313-.6719-2.3906-.7031-.875-2.0938-.875-.7187 0-1.2656.2812-.5312.2656-.9062.7188-.3594.4375-.5625 1.0312-.1875.5781-.2188 1.2344h5.7188z"/>
      </g>
    </g>
    <defs>
      <filter id="k" filterUnits="userSpaceOnUse">
        <feGaussianBlur in="SourceAlpha" result="blur" stdDeviation="1.3998"/>
        <feComponentTransfer color-interpolation-filters="sRGB" in="blur">
          <feFuncR slope="0" type="linear"/>
          <feFuncG slope="0" type="linear"/>
          <feFuncB slope="0" type="linear"/>
          <feFuncA slope=".349" type="linear"/>
        </feComponentTransfer>
      </filter>
    </defs>
    <g id="l">
      <defs>
        <linearGradient id="m" x1="60.6397" x2="60.6398" y1="56.3459" y2="46.6399" gradientTransform="scale(9.70605)" gradientUnits="userSpaceOnUse" spreadMethod="pad">
          <stop offset="0" stop-color="#3e7fcd"/>
          <stop offset="1" stop-color="#96c0ff"/>
        </linearGradient>
      </defs>
      <path fill="url(#m)" fill-rule="evenodd" d="M349.4226 499.7914c0-26.014 53.5354-47.1024 119.5748-47.1024 66.0393 0 119.5748 21.0884 119.5748 47.1023 0 26.014-53.5355 47.1024-119.5748 47.1024-66.0394 0-119.5748-21.0885-119.5748-47.1023z"/>
      <path fill-rule="evenodd" stroke="#4a7dba" stroke-linecap="butt" stroke-linejoin="round" d="M349.4226 499.7914c0-26.014 53.5354-47.1024 119.5748-47.1024 66.0393 0 119.5748 21.0884 119.5748 47.1023 0 26.014-53.5355 47.1024-119.5748 47.1024-66.0394 0-119.5748-21.0885-119.5748-47.1023z"/>
      <path fill="#fff" d="M434.8392 504.1813q0 1.0625-.3907 1.8907-.3906.828-1.0937 1.4218-.6875.5782-1.6406.875-.9375.2813-2.0313.2813-.75 0-1.4062-.125-.6563-.125-1.1719-.3125-.5-.1875-.8438-.3906-.3437-.2032-.4843-.3438-.125-.1406-.2032-.3594-.0625-.2187-.0625-.578 0-.25.0157-.422.0312-.1718.0781-.2812.0469-.1094.1094-.1406.0781-.047.1718-.047.172 0 .4688.2032.2969.2031.7656.4375.4688.2344 1.125.4375.6719.2031 1.5313.2031.6562 0 1.2031-.1718.5469-.1875.9375-.5.3906-.3282.5937-.797.2188-.4687.2188-1.0624 0-.6406-.2969-1.0938-.2812-.4687-.7656-.8125-.4844-.3437-1.0938-.625-.6093-.2968-1.2656-.5937-.6406-.2969-1.25-.6563-.6094-.375-1.0937-.8593-.4688-.5-.7813-1.1563-.2969-.6562-.2969-1.5937 0-.9375.3438-1.6875.3594-.75.9687-1.25.6094-.5 1.4532-.7657.8593-.2656 1.8437-.2656.5 0 1.0156.0938.5157.078.9532.2343.4531.1407.7968.3282.3594.1718.4688.2968.125.1094.1562.172.0313.0624.047.1718.0312.0937.0468.2344.0156.1406.0156.3593 0 .2032-.0312.375-.0157.1563-.0469.2813-.0313.1094-.0938.1562-.0625.047-.1562.047-.125 0-.4063-.1563-.2656-.172-.6718-.375-.3907-.2032-.9375-.375-.5469-.172-1.2188-.172-.6406 0-1.1094.172-.4687.1718-.7812.453-.2969.2813-.4531.672-.1407.3906-.1407.8125 0 .6406.2813 1.0937.2969.4531.7812.8125.4844.3438 1.1094.6406.625.297 1.2656.5938.6407.2969 1.2657.6562.625.3594 1.1093.8438.4844.4844.7813 1.1562.2969.6563.2969 1.5625zm11.668-1.7812q0 .4687-.2344.6562-.2188.1875-.5157.1875h-6.9218q0 .8907.1718 1.5938.1875.7031.5938 1.2031.4062.5 1.0625.7813.6562.2656 1.6094.2656.75 0 1.328-.125.5938-.125 1.0157-.2813.4375-.1562.7031-.2656.2813-.125.422-.125.078 0 .1405.0469.0782.0312.1094.1094.0313.078.0469.2343.0156.1407.0156.3594 0 .1406-.0156.2656 0 .1094-.0156.2032-.0157.078-.0625.1562-.047.0625-.1094.125-.0625.0625-.375.2188-.3125.1406-.8281.2812-.5.1406-1.172.25-.6562.1094-1.4062.1094-1.2968 0-2.2812-.3594-.9688-.3594-1.6406-1.0781-.672-.7188-1.0157-1.7969-.328-1.0781-.328-2.5 0-1.3594.3437-2.4375.3593-1.0937 1.0156-1.8437.6719-.7657 1.6094-1.172.9375-.4062 2.0937-.4062 1.2344 0 2.1094.4063.875.3906 1.4375 1.0781.5625.6719.8281 1.5781.2656.9063.2656 1.9375v.3438zm-1.9532-.5625q.0469-1.5313-.6719-2.3906-.703-.875-2.0937-.875-.7188 0-1.2656.2812-.5313.2656-.9063.7188-.3594.4375-.5625 1.0312-.1875.5781-.2187 1.2344h5.7187zm12.832 6.3125q0 .1406-.0937.2187-.0938.0625-.2656.0938-.1563.0469-.4688.0469-.2969 0-.4844-.047-.1875-.0312-.2656-.0937-.0781-.078-.0781-.2187v-1.0625q-.6875.75-1.5469 1.1562-.8437.4063-1.7969.4063-.828 0-1.5-.2188-.6718-.2187-1.1562-.625-.4688-.4062-.7344-1-.2656-.6093-.2656-1.3593 0-.8907.3594-1.547.375-.6562 1.0468-1.0937.6875-.4375 1.672-.6562.9843-.2188 2.203-.2188h1.4532v-.8125q0-.6093-.125-1.078-.125-.4688-.4219-.7813-.2813-.3125-.7344-.4688-.4531-.1562-1.125-.1562-.7187 0-1.2969.1718-.5625.172-.9843.375-.4219.2032-.7188.375-.2812.172-.4219.172-.0937 0-.1718-.047-.0625-.0468-.125-.1406-.0469-.0937-.0782-.2344-.0156-.1562-.0156-.328 0-.297.0313-.4688.0468-.172.2031-.3125.1719-.1563.5469-.3594.3906-.2188.8906-.375.5156-.1719 1.1094-.2813.5937-.125 1.2031-.125 1.1406 0 1.9375.2657.7969.25 1.2812.75.5.5.7188 1.25.2187.7343.2187 1.7187v7.1094zm-1.9218-4.8125h-1.6407q-.7968 0-1.3906.1406-.5781.125-.9687.3906-.3907.2657-.5782.6407-.1718.3593-.1718.8437 0 .8125.5156 1.2969.5312.4844 1.4687.4844.75 0 1.4063-.375.6562-.3907 1.3594-1.1875v-2.2344zm15.1836-.6406q0 1.3906-.297 2.5-.2968 1.0937-.8905 1.8593-.5782.7657-1.4375 1.1875-.8438.4063-1.9532.4063-.4687 0-.875-.0938-.3906-.0937-.7656-.2812-.375-.2031-.75-.5-.375-.3125-.7969-.7344v5.2813q0 .0937-.0468.1562-.047.0781-.1563.125-.1094.0469-.2969.0625-.1875.0313-.4843.0313-.2813 0-.4688-.0313-.1875-.0156-.2969-.0625-.1093-.0469-.1562-.125-.0313-.0625-.0313-.1562v-14.7344q0-.1094.0313-.1719.0312-.0625.1406-.1094.1094-.0468.2656-.0625.172-.0156.4063-.0156.25 0 .4062.0156.1563.0157.25.0625.1094.047.1563.1094.0469.0625.0469.1719v1.4219q.4687-.5.9062-.8594.4531-.3594.9063-.5938.453-.25.9218-.375.4844-.125 1.0157-.125 1.1406 0 1.953.4532.8126.4375 1.3126 1.2187.5156.7656.75 1.7969.2344 1.0312.2344 2.1719zm-2.047.2187q0-.7969-.125-1.5469-.1093-.7656-.4218-1.3437-.2969-.5938-.7969-.9375-.5-.3594-1.25-.3594-.375 0-.75.1094-.3593.1094-.7343.3594-.375.2343-.7813.625-.4062.3906-.8594.9687v4.1875q.797.9844 1.5 1.5.7188.5156 1.5.5156.7344 0 1.25-.3437.5313-.3594.8438-.9375.3281-.5938.4687-1.3125.1563-.7344.1563-1.4844zm6.8907 5.2188q0 .0937-.0469.1562-.0468.0625-.1562.125-.1094.0469-.2969.0625-.1875.0313-.4844.0313-.2812 0-.4687-.0313-.1875-.0156-.2969-.0625-.1094-.0625-.1562-.125-.0313-.0625-.0313-.1562v-15.6563q0-.0937.0313-.1562.0468-.0782.1562-.125.1094-.047.2969-.0625.1875-.0313.4687-.0313.297 0 .4844.0313.1875.0156.2969.0625.1094.0468.1562.125.047.0625.047.1562v15.6563zm11.5078.0156q0 .1406-.0937.2187-.0938.0625-.2656.0938-.1563.0469-.4688.0469-.2969 0-.4844-.047-.1875-.0312-.2656-.0937-.0781-.078-.0781-.2187v-1.0625q-.6875.75-1.5469 1.1562-.8437.4063-1.7969.4063-.8281 0-1.5-.2188-.6718-.2187-1.1562-.625-.4688-.4062-.7344-1-.2656-.6093-.2656-1.3593 0-.8907.3594-1.547.375-.6562 1.0468-1.0937.6875-.4375 1.6719-.6562.9844-.2188 2.2031-.2188h1.4532v-.8125q0-.6093-.125-1.078-.125-.4688-.422-.7813-.2812-.3125-.7343-.4688-.4531-.1562-1.125-.1562-.7187 0-1.2969.1718-.5625.172-.9843.375-.422.2032-.7188.375-.2812.172-.4219.172-.0937 0-.1718-.047-.0625-.0468-.125-.1406-.047-.0937-.0782-.2344-.0156-.1562-.0156-.328 0-.297.0313-.4688.0468-.172.203-.3125.172-.1563.547-.3594.3906-.2188.8906-.375.5156-.1719 1.1094-.2813.5937-.125 1.203-.125 1.1407 0 1.9376.2657.7969.25 1.2812.75.5.5.7188 1.25.2187.7343.2187 1.7187v7.1094zm-1.9218-4.8125h-1.6407q-.7968 0-1.3906.1406-.5781.125-.9687.3906-.3907.2657-.5782.6407-.1718.3593-.1718.8437 0 .8125.5156 1.2969.5312.4844 1.4687.4844.75 0 1.4063-.375.6562-.3907 1.3594-1.1875v-2.2344zm14.5585 4.7969q0 .0937-.0468.1562-.0469.0625-.1563.125-.0937.0469-.2812.0625-.1875.0313-.4688.0313-.2969 0-.4844-.0313-.1875-.0156-.2968-.0625-.1094-.0625-.1563-.125t-.0469-.1562v-6.172q0-.9062-.1406-1.453-.1406-.547-.4062-.9375-.2657-.4063-.7032-.6094-.4218-.2188-.9843-.2188-.7188 0-1.4532.5157-.7187.5156-1.5156 1.5v7.375q0 .0937-.0469.1562-.0468.0625-.1562.125-.1094.0469-.2969.0625-.1875.0313-.4844.0313-.2812 0-.4687-.0313-.1875-.0156-.2969-.0625-.1094-.0625-.1562-.125-.0313-.0625-.0313-.1562v-10.547q0-.0937.0313-.1562.0312-.0625.1406-.1093.1094-.0625.2656-.0782.1719-.0156.4375-.0156t.4219.0156q.1719.0157.2656.0782.0938.0468.1406.1093.047.0625.047.1563v1.3906q.8905-.9844 1.7655-1.4531.8907-.4688 1.797-.4688 1.0468 0 1.7655.3594.7188.3594 1.1563.9688.4531.5937.6406 1.3906.2031.7969.2031 1.9219v6.4375zm12.5313-5.7344q0 .4687-.2344.6562-.2187.1875-.5156.1875h-6.9219q0 .8907.1719 1.5938.1875.7031.5937 1.2031.4063.5 1.0625.7813.6563.2656 1.6094.2656.75 0 1.3281-.125.5938-.125 1.0157-.2813.4375-.1562.7031-.2656.2812-.125.4219-.125.0781 0 .1406.0469.0781.0312.1094.1094.0312.078.0468.2343.0157.1407.0157.3594 0 .1406-.0157.2656 0 .1094-.0156.2032-.0156.078-.0625.1562-.0469.0625-.1094.125t-.375.2188q-.3125.1406-.828.2812-.5.1406-1.172.25-.6562.1094-1.4062.1094-1.2969 0-2.2813-.3594-.9687-.3594-1.6406-1.0781-.6719-.7188-1.0156-1.7969-.3281-1.0781-.3281-2.5 0-1.3594.3437-2.4375.3594-1.0937 1.0156-1.8437.672-.7657 1.6094-1.172.9375-.4062 2.0938-.4062 1.2343 0 2.1093.4063.875.3906 1.4375 1.0781.5625.6719.8282 1.5781.2656.9063.2656 1.9375v.3438zm-1.9531-.5625q.0468-1.5313-.6719-2.3906-.7031-.875-2.0938-.875-.7187 0-1.2656.2812-.5312.2656-.9062.7188-.3594.4375-.5625 1.0312-.1875.5781-.2188 1.2344h5.7188z"/>
    </g>
  </g>
</svg>